<?xml version="1.0" standalone="no"?>
<!DOCTYPE svg PUBLIC "-//W3C//DTD SVG 20010904//EN"
 "http://www.w3.org/TR/2001/REC-SVG-20010904/DTD/svg10.dtd">
<svg version="1.0" xmlns="http://www.w3.org/2000/svg"
 width="512.000000pt" height="512.000000pt" viewBox="0 0 512.000000 512.000000"
 preserveAspectRatio="xMidYMid meet">
<metadata>
Created by potrace 1.11, written by Peter Selinger 2001-2013
</metadata>
<g transform="translate(0.000000,512.000000) scale(0.100000,-0.100000)"
fill="#000000" stroke="none">
<path d="M2398 5115 c-2 -1 -39 -5 -83 -9 -44 -3 -91 -8 -105 -10 -14 -3 -41
-7 -60 -10 -450 -68 -925 -291 -1269 -596 -206 -183 -421 -441 -528 -635 -133
-241 -235 -491 -278 -683 -54 -242 -67 -346 -70 -573 -5 -426 77 -797 257
-1164 338 -691 984 -1203 1727 -1371 93 -21 87 -19 146 -28 28 -4 61 -10 75
-12 117 -20 471 -26 605 -11 39 4 87 9 107 12 20 2 45 6 55 9 10 3 38 8 63 11
24 4 47 8 51 10 3 2 21 7 40 10 87 15 328 93 439 142 490 219 855 529 1143
968 192 294 352 727 383 1040 3 33 8 64 11 69 10 15 11 427 3 511 -10 100 -19
163 -25 195 -11 53 -27 126 -31 150 -11 55 -56 205 -88 292 -133 363 -324 662
-603 943 -77 77 -163 154 -207 185 -12 8 -30 23 -41 33 -48 45 -271 184 -395
247 -361 183 -708 268 -1122 275 -108 2 -198 2 -200 0z"/>
</g>
</svg>
